<?xml version="1.0" encoding="utf-8" ?>
<svg version="1.1"
     baseProfile="full"
     width="415" height="160"
     viewBox="0 0 415 160"
     xmlns="http://www.w3.org/2000/svg">
  <defs>
      <marker id="arrow" markerWidth="10" markerHeight="10" refX="5" refY="2" orient="auto" markerUnits="strokeWidth">
      <path d="M0,0 L0,4 L5,2 z" fill="black" />
    </marker>
  </defs>
  <style type="text/css">
    text {
      text-anchor: middle;
      dominant-baseline: middle;
      font-size: 10pt;
    }
    ellipse, rect {
      stroke: black;
      stroke-width: 1.5pt;
      fill: none;
    }
    .generated rect {
      stroke-dasharray: 5,3;
    }
    line {
      stroke: black;
      stroke-width: 1.5pt;
      marker-end: url(#arrow);
    }
  </style>
  <!-- to ensure people using dark theme can see it. -->
  <rect x="0" y="0" width="415" height="160" style="stroke: none; fill: white;" />

  <g transform="translate(10,10)">
    <rect width="70" height="40" />
    <text x="35" y="13">component</text>
    <text x="35" y="28">definitions</text>
  </g>

  <g transform="translate(10, 60)">
    <rect width="70" height="40" />
    <text x="35" y="13">HTML</text>
    <text x="35" y="28">skeleton</text>
  </g>

  <g transform="translate(10, 110)">
    <rect width="70" height="40" />
    <text x="35" y="13">Go</text>
    <text x="35" y="28">code</text>
  </g>

  <line x1="80" y1="30" x2="97" y2="42" />
  <line x1="80" y1="80" x2="97" y2="68" />

  <g transform="translate(90,35)">
    <ellipse cx="25" cy="20" rx="25" ry="20" />
    <text x="25" y="21">askew</text>
  </g>

  <line x1="130" y1="70" x2="150" y2="85" />

  <g transform="translate(150,65)" class="generated">
    <rect width="70" height="40" />
    <text x="35" y="13">generated</text>
    <text x="35" y="28">Go code</text>
  </g>

  <line x1="220" y1="85" x2="245" y2="108" />
  <line x1="80" y1="130" x2="231" y2="130" />

  <g transform="translate(230,105)">
    <ellipse cx="30" cy="25" rx="30" ry="25" />
    <text x="30" y="26">GopherJS</text>
  </g>

  <line x1="140" y1="55" x2="321" y2="55" />

  <g transform="translate(320,45)" class="generated">
    <rect width="70" height="20" />
    <text x="35" y="12">index.html</text>
  </g>

  <line x1="290" y1="130" x2="321" y2="130" />

  <g transform="translate(320,120)" class="generated">
    <rect width="70" height="20" />
    <text x="35" y="12">main.js</text>
  </g>

  <g transform="translate(305, 30)">
    <rect width="100" height="125" stroke-width="1pt" stroke-dasharray="10,5" />
    <text x="50" y="62">Website</text>
  </g>
</svg>